<?xml version="1.0" encoding="UTF-8"?>
<svg xmlns="http://www.w3.org/2000/svg" onmouseup="{ if(window.parent.document.onmouseup) window.parent.document.onmouseup(arguments[0]);}" width="36" viewBox="0 0 36 36" id="S_Cut_18_N_2x" height="36" data-name="S_Cut_18_N@2x"><defs><style>
      .fill {
        fill: #6e6e6e;
      }

      
    </style></defs><path data-cppathid="10000" d="M29.912,22.12c0-.007.035-.028.026-.028A8.481,8.481,0,0,1,22.8,18.074c-.017-.028-.046-.047-.065-.074.019-.027.048-.046.065-.074a8.481,8.481,0,0,1,7.142-4.018c.009,0-.023-.021-.026-.028a5.917,5.917,0,1,0-3.93-1.588l-6.47,3.444-12.6-6.7a4,4,0,0,0-3.8.023L.822,10.313,15.26,18,.822,25.687l2.292,1.255a4,4,0,0,0,3.8.023l12.6-6.7,6.47,3.444a5.892,5.892,0,1,0,3.93-1.588Zm.367-18.038a3.933,3.933,0,1,1-4.2,3.641A3.932,3.932,0,0,1,30.279,4.082Zm0,27.836a3.933,3.933,0,1,1,3.641-4.2A3.933,3.933,0,0,1,30.279,31.918Z" class="fill"/></svg>